<svg width="191" height="64" viewBox="0 0 191 64" fill="none" xmlns="http://www.w3.org/2000/svg">
<path d="M26.98 30.924C28.684 31.332 29.98 32.076 30.868 33.156C31.756 34.236 32.2 35.616 32.2 37.296C32.2 39.504 31.432 41.34 29.896 42.804C28.36 44.268 26.404 45 24.028 45H16.036C15.148 45 14.416 44.724 13.84 44.172C13.264 43.62 12.976 42.888 12.976 41.976V21.996C12.976 21.132 13.252 20.424 13.804 19.872C14.356 19.32 15.076 19.044 15.964 19.044H22.156C24.556 19.044 26.464 19.668 27.88 20.916C29.32 22.14 30.04 23.784 30.04 25.848C30.04 26.232 30.004 26.592 29.932 26.928C29.884 27.264 29.788 27.672 29.644 28.152C29.38 28.824 29.08 29.34 28.744 29.7C28.408 30.036 27.82 30.444 26.98 30.924ZM18.844 24.192V29.196H21.58C22.348 29.196 22.996 28.956 23.524 28.476C24.052 27.996 24.316 27.408 24.316 26.712C24.316 25.992 24.064 25.392 23.56 24.912C23.056 24.432 22.42 24.192 21.652 24.192H18.844ZM18.808 34.236V39.852H23.308C24.1 39.852 24.784 39.588 25.36 39.06C25.936 38.532 26.224 37.884 26.224 37.116C26.224 36.3 25.948 35.616 25.396 35.064C24.844 34.512 24.16 34.236 23.344 34.236H18.808ZM39.5803 42.552C39.5803 43.32 39.3043 43.98 38.7523 44.532C38.2003 45.084 37.5403 45.36 36.7723 45.36C35.9803 45.36 35.3083 45.096 34.7563 44.568C34.2283 44.016 33.9643 43.356 33.9643 42.588V19.656C33.9643 18.888 34.2403 18.228 34.7923 17.676C35.3443 17.124 36.0043 16.848 36.7723 16.848C37.5403 16.848 38.2003 17.124 38.7523 17.676C39.3043 18.228 39.5803 18.888 39.5803 19.656V42.552ZM60.1104 37.44C60.1104 39.96 59.3424 41.916 57.8064 43.308C56.2704 44.7 54.1104 45.396 51.3264 45.396C48.5424 45.396 46.3824 44.7 44.8464 43.308C43.3104 41.916 42.5424 39.96 42.5424 37.44V28.116C42.5424 27.348 42.8184 26.7 43.3704 26.172C43.9464 25.62 44.6184 25.344 45.3864 25.344C46.1544 25.344 46.8024 25.62 47.3304 26.172C47.8824 26.7 48.1584 27.348 48.1584 28.116V36.936C48.1584 39.312 49.2144 40.5 51.3264 40.5C52.3584 40.5 53.1504 40.188 53.7024 39.564C54.2544 38.94 54.5304 38.064 54.5304 36.936V28.116C54.5304 27.348 54.7944 26.7 55.3224 26.172C55.8744 25.62 56.5344 25.344 57.3024 25.344C58.0944 25.344 58.7544 25.62 59.2824 26.172C59.8344 26.7 60.1104 27.348 60.1104 28.116V37.44ZM68.3297 37.044C68.5217 37.548 68.6897 37.956 68.8337 38.268C68.9777 38.58 69.1217 38.832 69.2657 39.024C69.6017 39.456 70.1057 39.828 70.7777 40.14C71.4737 40.452 72.1817 40.608 72.9017 40.608C74.1017 40.608 75.3137 40.272 76.5377 39.6C77.1137 39.264 77.5577 39.036 77.8697 38.916C78.2057 38.796 78.4937 38.736 78.7337 38.736C79.3817 38.736 79.9337 38.964 80.3897 39.42C80.8697 39.852 81.1097 40.368 81.1097 40.968C81.1097 42.12 80.2337 43.152 78.4817 44.064C76.7537 44.976 74.7737 45.432 72.5417 45.432C69.5657 45.432 67.1297 44.508 65.2337 42.66C63.3377 40.812 62.3897 38.424 62.3897 35.496C62.3897 32.616 63.3137 30.192 65.1617 28.224C67.0097 26.256 69.2897 25.272 72.0017 25.272C74.5697 25.272 76.7777 26.208 78.6257 28.08C80.4737 29.952 81.3977 32.184 81.3977 34.776C81.3977 35.616 81.2177 36.204 80.8577 36.54C80.4977 36.876 79.8737 37.044 78.9857 37.044H68.3297ZM72.1097 29.7C70.0697 29.7 68.7737 30.972 68.2217 33.516H75.8897C75.3857 30.972 74.1257 29.7 72.1097 29.7ZM88.5805 43.2C87.5965 44.64 86.7685 45.36 86.0965 45.36C85.3285 45.36 84.6685 45.084 84.1165 44.532C83.5645 43.98 83.2885 43.32 83.2885 42.552V19.62C83.2885 18.852 83.5645 18.192 84.1165 17.64C84.6685 17.088 85.3405 16.812 86.1325 16.812C86.9245 16.812 87.5845 17.088 88.1125 17.64C88.6405 18.192 88.9045 18.864 88.9045 19.656V26.892C89.7925 26.196 90.5125 25.74 91.0645 25.524C91.6405 25.308 92.4205 25.2 93.4045 25.2C95.9005 25.2 97.9885 26.16 99.6685 28.08C101.349 30 102.189 32.352 102.189 35.136C102.189 38.064 101.361 40.512 99.7045 42.48C98.0485 44.448 95.9845 45.432 93.5125 45.432C92.3845 45.432 91.4965 45.288 90.8485 45C90.2245 44.712 89.4685 44.112 88.5805 43.2ZM92.7205 30.384C91.5445 30.384 90.5845 30.852 89.8405 31.788C89.0965 32.724 88.7245 33.936 88.7245 35.424C88.7245 36.936 89.0845 38.148 89.8045 39.06C90.5245 39.948 91.4965 40.392 92.7205 40.392C93.8965 40.392 94.8445 39.936 95.5645 39.024C96.3085 38.088 96.6805 36.876 96.6805 35.388C96.6805 33.924 96.3085 32.724 95.5645 31.788C94.8205 30.852 93.8725 30.384 92.7205 30.384ZM110.033 42.552C110.033 43.344 109.757 44.016 109.205 44.568C108.677 45.096 108.029 45.36 107.261 45.36C106.469 45.36 105.797 45.096 105.245 44.568C104.693 44.04 104.417 43.38 104.417 42.588V28.152C104.417 27.384 104.693 26.724 105.245 26.172C105.797 25.62 106.469 25.344 107.261 25.344C108.005 25.344 108.653 25.62 109.205 26.172C109.757 26.724 110.033 27.384 110.033 28.152V42.552ZM104.021 20.412C104.021 19.5 104.333 18.732 104.957 18.108C105.581 17.484 106.349 17.172 107.261 17.172C108.125 17.172 108.857 17.496 109.457 18.144C110.081 18.768 110.393 19.524 110.393 20.412C110.393 21.276 110.093 22.02 109.493 22.644C108.893 23.268 108.149 23.58 107.261 23.58C106.373 23.58 105.605 23.28 104.957 22.68C104.333 22.056 104.021 21.3 104.021 20.412ZM118.575 27.648C118.911 27.216 119.259 26.832 119.619 26.496C120.459 25.704 121.347 25.308 122.283 25.308C123.075 25.308 123.747 25.572 124.299 26.1C124.851 26.628 125.127 27.3 125.127 28.116C125.127 28.716 124.935 29.22 124.551 29.628C124.383 29.82 124.155 29.988 123.867 30.132C123.603 30.252 123.183 30.42 122.607 30.636C121.359 31.092 120.375 31.644 119.655 32.292C118.959 32.916 118.611 33.576 118.611 34.272V42.552C118.611 43.32 118.335 43.98 117.783 44.532C117.255 45.06 116.607 45.324 115.839 45.324C115.071 45.324 114.411 45.06 113.859 44.532C113.307 44.004 113.031 43.356 113.031 42.588V28.044C113.031 27.3 113.307 26.664 113.859 26.136C114.411 25.608 115.083 25.344 115.875 25.344C116.571 25.344 117.471 26.112 118.575 27.648ZM138.219 27.144V19.656C138.219 18.888 138.495 18.228 139.047 17.676C139.599 17.124 140.259 16.848 141.027 16.848C141.795 16.848 142.443 17.124 142.971 17.676C143.523 18.204 143.799 18.864 143.799 19.656V42.588C143.799 43.356 143.523 44.016 142.971 44.568C142.443 45.096 141.783 45.36 140.991 45.36C140.295 45.36 139.443 44.592 138.435 43.056C137.571 43.968 136.803 44.58 136.131 44.892C135.483 45.204 134.631 45.36 133.575 45.36C131.127 45.36 129.051 44.388 127.347 42.444C125.667 40.476 124.827 38.088 124.827 35.28C124.827 32.448 125.679 30.072 127.383 28.152C129.087 26.232 131.187 25.272 133.683 25.272C134.643 25.272 135.399 25.392 135.951 25.632C136.527 25.872 137.283 26.376 138.219 27.144ZM134.331 30.384C133.203 30.384 132.255 30.852 131.487 31.788C130.719 32.724 130.335 33.912 130.335 35.352C130.335 36.792 130.707 37.98 131.451 38.916C132.195 39.852 133.143 40.32 134.295 40.32C135.471 40.32 136.431 39.864 137.175 38.952C137.943 38.016 138.327 36.84 138.327 35.424C138.327 33.936 137.955 32.724 137.211 31.788C136.467 30.852 135.507 30.384 134.331 30.384Z" fill="#2C2C2C"/>
</svg>
